<svg width="640" height="480" viewBox="0 0 640 480" fill="none" xmlns="http://www.w3.org/2000/svg">
<g clip-path="url(#clip0_1720_3339)">
<path d="M0 0H640V480H0V0Z" fill="#DA2032"/>
<path d="M213.301 0H426.701V480H213.301V0Z" fill="#0066B3"/>
<path d="M106.699 221.801C128.791 221.801 146.699 203.892 146.699 181.801C146.699 159.709 128.791 141.801 106.699 141.801C84.6078 141.801 66.6992 159.709 66.6992 181.801C66.6992 203.892 84.6078 221.801 106.699 221.801Z" fill="#FFD900"/>
<path d="M106.7 207.2C130.779 207.2 150.3 187.68 150.3 163.6C150.3 139.52 130.779 120 106.7 120C82.62 120 63.0996 139.52 63.0996 163.6C63.0996 187.68 82.62 207.2 106.7 207.2Z" fill="#DA2032"/>
<path d="M106.7 200.001C122.771 200.001 135.8 186.972 135.8 170.901C135.8 154.829 122.771 141.801 106.7 141.801C90.6281 141.801 77.5996 154.829 77.5996 170.901C77.5996 186.972 90.6281 200.001 106.7 200.001Z" fill="#FFD900"/>
<path d="M109.699 76.4004C108.223 77.0463 106.955 78.0895 106.037 79.4138C105.119 80.7381 104.586 82.2913 104.499 83.9004C104.299 86.4004 105.399 89.2004 105.499 91.6004C105.499 95.8004 101.199 97.2004 101.199 103.1C101.199 105.1 103.099 107.4 103.099 112.7C102.699 115.5 101.099 116.2 99.3992 116.4C98.9179 116.401 98.4415 116.304 97.9981 116.117C97.5546 115.93 97.1532 115.656 96.8176 115.311C96.482 114.966 96.2189 114.557 96.044 114.109C95.8691 113.66 95.7859 113.181 95.7992 112.7C95.7966 111.769 96.1551 110.873 96.7992 110.2C96.9254 110.091 97.0591 109.991 97.1992 109.9C97.9992 109 99.1992 108.7 99.1992 106.5C99.1992 105.4 98.3992 104.3 97.6992 102.3C96.9992 100.3 97.4992 97.1004 99.0992 95.2004C96.4992 96.2004 94.9992 98.6004 94.0992 100.8C93.2992 103.5 94.0992 105 92.8992 107.3C92.1992 108.7 91.3992 109.3 90.5992 110.5C89.5992 111.9 88.5992 114.9 88.5992 116.4C88.9395 120.981 90.9994 125.264 94.3657 128.39C97.732 131.515 102.156 133.252 106.749 133.252C111.343 133.252 115.766 131.515 119.133 128.39C122.499 125.264 124.559 120.981 124.899 116.4C124.899 114.9 123.799 111.9 122.899 110.5C121.999 109.3 121.199 108.7 120.499 107.3C119.299 105 120.099 103.5 119.199 100.8C118.399 98.6004 116.899 96.2004 114.299 95.2004C115.899 97.2004 116.299 100.4 115.699 102.3C114.999 104.3 114.299 105.3 114.299 106.5C114.299 108.7 115.399 109 116.299 109.9C116.405 109.994 116.505 110.095 116.599 110.2C117.243 110.873 117.602 111.769 117.599 112.7C117.613 113.181 117.529 113.66 117.354 114.109C117.18 114.557 116.916 114.966 116.581 115.311C116.245 115.656 115.844 115.93 115.4 116.117C114.957 116.304 114.481 116.401 113.999 116.4C111.999 116.1 110.499 115.2 110.299 112.7C110.299 105.7 113.299 105.3 113.299 100.1C113.299 92.7004 106.699 89.2004 106.699 83.8004C106.699 82.0004 107.099 78.8004 109.699 76.4004ZM26.6992 229H62.9992V403.5H26.6992V229ZM150.299 229H186.699V403.5H150.299V229ZM70.2992 229H142.999L106.699 250.8L70.2992 229ZM70.2992 258H142.999V272.6H70.2992V258ZM70.2992 359.9H142.999V374.5H70.2992V359.9ZM70.2992 381.7H142.999L106.699 403.5L70.2992 381.7Z" fill="#FFD900"/>
<path d="M106.701 352.8C126.804 352.8 143.101 336.503 143.101 316.4C143.101 296.297 126.804 280 106.701 280C86.5976 280 70.3008 296.297 70.3008 316.4C70.3008 336.503 86.5976 352.8 106.701 352.8Z" fill="#FFD900"/>
<path d="M106.654 304.334C110.67 304.334 113.926 301.078 113.926 297.062C113.926 293.045 110.67 289.789 106.654 289.789C102.637 289.789 99.3809 293.045 99.3809 297.062C99.3809 301.078 102.637 304.334 106.654 304.334Z" fill="#DA2032"/>
<path d="M106.654 342.879C110.67 342.879 113.926 339.623 113.926 335.607C113.926 331.59 110.67 328.334 106.654 328.334C102.637 328.334 99.3809 331.59 99.3809 335.607C99.3809 339.623 102.637 342.879 106.654 342.879Z" fill="#DA2032"/>
<path d="M106.654 275.607C112.344 275.607 117.801 277.868 121.824 281.891C125.848 285.915 128.108 291.372 128.108 297.062C128.108 302.752 125.848 308.209 121.824 312.232C117.801 316.256 112.344 318.516 106.654 318.516C102.121 318.516 97.7738 320.317 94.5686 323.522C91.3635 326.727 89.5628 331.074 89.5628 335.607C89.5628 340.14 91.3635 344.487 94.5686 347.692C97.7738 350.897 102.121 352.698 106.654 352.698V357.062C100.964 357.062 95.5066 354.801 91.4831 350.778C87.4596 346.754 85.1992 341.297 85.1992 335.607C85.1992 329.917 87.4596 324.46 91.4831 320.437C95.5066 316.413 100.964 314.153 106.654 314.153C111.186 314.153 115.534 312.352 118.739 309.147C121.944 305.942 123.745 301.595 123.745 297.062C123.745 292.529 121.944 288.182 118.739 284.977C115.534 281.772 111.186 279.971 106.654 279.971V275.607Z" fill="#DA2032"/>
</g>
<defs>
<clipPath id="clip0_1720_3339">
<rect width="640" height="480" fill="white"/>
</clipPath>
</defs>
</svg>
