<svg width="640" height="480" viewBox="0 0 640 480" fill="none" xmlns="http://www.w3.org/2000/svg">
<g clip-path="url(#clip0_1720_3351)">
<path d="M256 0H640V480H256V0Z" fill="#FF0000"/>
<path d="M0 0H256V480H0V0Z" fill="#006600"/>
<path fill-rule="evenodd" clip-rule="evenodd" d="M339.5 306.201C307.2 305.201 159.5 213.001 158.5 198.201L166.6 184.701C181.3 206.001 332.3 295.701 347.2 292.501L339.5 306.201Z" fill="#FFFF00" stroke="black" stroke-width="0.6" stroke-linecap="round" stroke-linejoin="round"/>
<path fill-rule="evenodd" clip-rule="evenodd" d="M164.899 182.801C161.999 190.601 203.499 216.201 253.299 246.601C303.199 276.901 346.199 295.601 349.299 293.001L350.799 290.201C350.199 291.201 348.799 291.501 346.499 290.801C332.999 286.901 297.899 270.801 254.399 244.401C210.799 218.001 172.999 193.701 167.099 183.401C166.639 182.435 166.433 181.368 166.499 180.301H166.299L165.099 182.501L164.899 182.801ZM340.199 306.601C339.699 307.601 338.599 307.601 336.699 307.401C324.699 306.101 288.099 288.301 244.799 262.401C194.399 232.201 152.799 204.801 157.399 197.601L158.599 195.401L158.799 195.501C154.799 207.701 240.899 256.901 245.999 260.101C295.799 290.901 337.799 309.001 341.499 304.301L340.199 306.601Z" fill="#FFFF00" stroke="black" stroke-width="0.6" stroke-linecap="round" stroke-linejoin="round"/>
<path fill-rule="evenodd" clip-rule="evenodd" d="M256.201 207.2C288.401 206.9 328.201 202.8 351.201 193.6L346.201 185.6C332.701 193.1 292.701 198.1 255.901 198.8C212.501 198.4 181.801 194.3 166.401 184L161.801 192.6C190.001 204.6 219.001 207.1 256.201 207.2Z" fill="#FFFF00" stroke="black" stroke-width="0.6" stroke-linecap="round" stroke-linejoin="round"/>
<path fill-rule="evenodd" clip-rule="evenodd" d="M352.499 193.802C351.699 195.102 336.699 200.202 314.699 204.002C295.306 206.94 275.714 208.378 256.099 208.302C237.306 208.372 218.53 207.169 199.899 204.702C176.799 201.102 164.899 196.102 160.399 194.302L161.499 192.102C174.199 197.102 186.199 200.102 200.199 202.302C218.694 204.799 237.337 206.035 255.999 206.002C275.513 206.022 295 204.585 314.299 201.702C336.799 198.002 349.099 193.302 350.899 191.202L352.499 193.802ZM348.099 185.702C345.699 187.702 333.499 192.002 312.099 195.402C293.62 198.075 274.971 199.412 256.299 199.402C234.299 199.402 216.199 197.802 202.499 195.802C180.699 193.002 169.099 187.802 164.899 186.402L166.199 184.202C169.499 185.902 180.599 190.402 202.699 193.502C220.465 195.881 238.375 197.017 256.299 196.902C274.838 196.907 293.353 195.57 311.699 192.902C333.199 189.902 344.799 184.502 346.599 183.102L348.099 185.702ZM150.299 246.002C170.099 256.702 214.199 262.002 255.899 262.402C293.899 262.502 343.299 256.602 361.799 246.802L361.299 236.102C355.499 245.102 302.499 253.802 255.499 253.502C208.499 253.102 164.799 245.902 150.199 236.502V246.002" fill="#FFFF00"/>
<path d="M150.299 246.002C170.099 256.702 214.199 262.002 255.899 262.402C293.899 262.502 343.299 256.602 361.799 246.802L361.299 236.102C355.499 245.102 302.499 253.802 255.499 253.502C208.499 253.102 164.799 245.902 150.199 236.502V246.002M352.499 193.802C351.699 195.102 336.699 200.202 314.699 204.002C295.306 206.94 275.714 208.378 256.099 208.302C237.306 208.372 218.53 207.169 199.899 204.702C176.799 201.102 164.899 196.102 160.399 194.302L161.499 192.102C174.199 197.102 186.199 200.102 200.199 202.302C218.694 204.799 237.337 206.035 255.999 206.002C275.513 206.022 295 204.585 314.299 201.702C336.799 198.002 349.099 193.302 350.899 191.202L352.499 193.802ZM348.099 185.702C345.699 187.702 333.499 192.002 312.099 195.402C293.62 198.075 274.971 199.412 256.299 199.402C234.299 199.402 216.199 197.802 202.499 195.802C180.699 193.002 169.099 187.802 164.899 186.402L166.199 184.202C169.499 185.902 180.599 190.402 202.699 193.502C220.465 195.881 238.375 197.017 256.299 196.902C274.838 196.907 293.353 195.57 311.699 192.902C333.199 189.902 344.799 184.502 346.599 183.102L348.099 185.702Z" stroke="black" stroke-width="0.6" stroke-linecap="round" stroke-linejoin="round"/>
<path fill-rule="evenodd" clip-rule="evenodd" d="M362.8 244.502V247.002C360 250.402 342.6 255.402 320.8 259.002C299.142 262.115 277.28 263.586 255.4 263.402C234.653 263.578 213.924 262.141 193.4 259.102C178.086 257.332 163.121 253.287 149 247.102V244.202C158.7 250.602 184.9 255.402 193.7 256.802C209.5 259.202 229.8 261.002 255.4 261.002C282.3 261.002 303.8 259.102 320.4 256.602C336.1 254.302 358.4 248.402 362.8 244.502ZM362.8 235.502V238.002C360 241.302 342.6 246.302 320.8 249.902C299.145 253.048 277.282 254.552 255.4 254.402C234.655 254.524 213.93 253.086 193.4 250.102C178.086 248.332 163.121 244.287 149 238.102V235.102C158.7 241.602 185 246.302 193.7 247.702C214.128 250.694 234.754 252.131 255.4 252.002C282.3 252.002 303.9 250.002 320.4 247.502C336.1 245.302 358.4 239.402 362.8 235.502ZM255.8 304.302C210.2 304.102 171.1 291.902 162.8 289.902L168.8 299.302C196.849 309.236 226.448 314.079 256.2 313.602C290.9 312.602 321.2 309.902 342.5 299.502L348.7 289.702C334.2 296.602 284.7 304.302 255.7 304.302" fill="#FFFF00"/>
<path d="M255.8 304.302C210.2 304.102 171.1 291.902 162.8 289.902L168.8 299.302C196.849 309.236 226.448 314.079 256.2 313.602C290.9 312.602 321.2 309.902 342.5 299.502L348.7 289.702C334.2 296.602 284.7 304.302 255.7 304.302M362.8 244.502V247.002C360 250.402 342.6 255.402 320.8 259.002C299.142 262.115 277.28 263.586 255.4 263.402C234.653 263.578 213.924 262.141 193.4 259.102C178.086 257.332 163.121 253.287 149 247.102V244.202C158.7 250.602 184.9 255.402 193.7 256.802C209.5 259.202 229.8 261.002 255.4 261.002C282.3 261.002 303.8 259.102 320.4 256.602C336.1 254.302 358.4 248.402 362.8 244.502ZM362.8 235.502V238.002C360 241.302 342.6 246.302 320.8 249.902C299.145 253.048 277.282 254.552 255.4 254.402C234.655 254.524 213.93 253.086 193.4 250.102C178.086 248.332 163.121 244.287 149 238.102V235.102C158.7 241.602 185 246.302 193.7 247.702C214.128 250.694 234.754 252.131 255.4 252.002C282.3 252.002 303.9 250.002 320.4 247.502C336.1 245.302 358.4 239.402 362.8 235.502Z" stroke="black" stroke-width="0.6" stroke-linecap="round" stroke-linejoin="round"/>
<path fill-rule="evenodd" clip-rule="evenodd" d="M344.9 297.3C343.989 298.65 343.056 299.983 342.1 301.3C332.1 304.9 316.1 308.7 309.5 309.7C291.79 313 273.815 314.674 255.8 314.7C215.4 314.1 182.3 306.2 166.8 299.4L165.5 297.3L165.7 296.9L167.8 297.8C196.26 307.218 226.022 312.111 256 312.3C274.8 312.3 293.5 310.2 308.6 307.5C331.8 302.8 341.2 299.3 344.1 297.7L344.8 297.3H344.9ZM350.2 288.5C349.542 289.672 348.875 290.838 348.2 292C342.8 294 328.2 298.2 306.9 301.2C292.9 303.1 284.2 305 256.3 305.5C224.406 305.18 192.708 300.469 162.1 291.5L161 289C192.098 297.595 224.143 302.298 256.4 303C281.9 302.5 292.8 300.6 306.7 298.7C331.5 294.9 344 290.7 347.7 289.6C347.702 289.534 347.702 289.467 347.7 289.4L350.3 288.4L350.2 288.5Z" fill="#FFFF00" stroke="black" stroke-width="0.6" stroke-linecap="round" stroke-linejoin="round"/>
<path fill-rule="evenodd" clip-rule="evenodd" d="M350.799 237.6C350.899 267.6 335.499 294.6 323.199 306.4C305.033 324.118 280.772 334.208 255.399 334.6C225.099 335.1 196.599 315.4 188.899 306.7C171.674 288.433 161.87 264.404 161.399 239.3C163.199 206.5 176.099 183.7 194.699 168C212.768 153.126 235.497 145.089 258.899 145.3C272.561 145.962 285.933 149.471 298.159 155.602C310.386 161.732 321.197 170.349 329.899 180.9C342.399 196.1 347.899 212.6 350.799 237.6ZM255.599 135C283.574 134.999 310.415 146.057 330.271 165.763C350.127 185.469 361.388 212.226 361.599 240.2C361.599 254.081 358.865 267.826 353.553 280.65C348.242 293.474 340.456 305.126 330.641 314.941C320.825 324.756 309.173 332.542 296.349 337.854C283.525 343.166 269.78 345.9 255.899 345.9C242.019 345.9 228.274 343.166 215.45 337.854C202.626 332.542 190.973 324.756 181.158 314.941C171.343 305.126 163.557 293.474 158.245 280.65C152.933 267.826 150.199 254.081 150.199 240.2C150.099 182.2 197.499 135 255.599 135Z" fill="#FFFF00" stroke="black" stroke-width="0.6" stroke-linecap="round" stroke-linejoin="round"/>
<path fill-rule="evenodd" clip-rule="evenodd" d="M255.9 134.5C314.1 134.5 361.5 181.9 361.5 240.1C361.5 298.3 314.1 345.7 256 345.7C197.9 345.7 150.4 298.3 150.4 240.1C150.4 181.9 197.8 134.5 256 134.5H255.9ZM152.6 240C152.6 296.8 199.3 343.3 255.9 343.3C312.5 343.3 359.2 296.8 359.2 240C359.2 183.2 312.5 136.7 255.9 136.7C199.3 136.7 152.6 183.2 152.6 240Z" fill="#FFFF00" stroke="black" stroke-width="0.6" stroke-linecap="round" stroke-linejoin="round"/>
<path fill-rule="evenodd" clip-rule="evenodd" d="M256.001 143.301C281.623 143.38 306.173 153.593 324.291 171.711C342.408 189.829 352.622 214.379 352.701 240.001C352.622 265.632 342.412 290.193 324.297 308.326C306.182 326.46 281.632 336.695 256.001 336.801C203.001 336.801 159.301 293.201 159.301 240.001C159.406 214.387 169.628 189.852 187.74 171.74C205.852 153.628 230.387 143.406 256.001 143.301ZM161.601 240.001C161.601 292.001 204.201 334.401 256.001 334.401C307.801 334.401 350.401 291.901 350.401 240.001C350.401 188.001 307.801 145.601 256.001 145.601C230.997 145.706 207.047 155.686 189.366 173.366C171.686 191.047 161.706 214.997 161.601 240.001Z" fill="#FFFF00" stroke="black" stroke-width="0.6" stroke-linecap="round" stroke-linejoin="round"/>
<path fill-rule="evenodd" clip-rule="evenodd" d="M260.299 134H251.199V346.3H260.199L260.299 134Z" fill="#FFFF00" stroke="black" stroke-width="0.6" stroke-linecap="round" stroke-linejoin="round"/>
<path fill-rule="evenodd" clip-rule="evenodd" d="M259.301 132.801H261.601V347.501H259.401V132.801H259.301ZM250.301 132.801H252.701V347.501H250.401L250.301 132.801Z" fill="#FFFF00" stroke="black" stroke-width="0.6" stroke-linecap="round" stroke-linejoin="round"/>
<path fill-rule="evenodd" clip-rule="evenodd" d="M361.6 244.2V236.4L355.2 230.4L318.9 220.8L266.7 215.5L203.7 218.7L158.9 229.3L149.9 236V243.9L172.8 233.6L227.2 225.1H279.5L317.9 229.3L344.5 235.7L361.6 244.2Z" fill="#FFFF00" stroke="black" stroke-width="0.6" stroke-linecap="round" stroke-linejoin="round"/>
<path fill-rule="evenodd" clip-rule="evenodd" d="M256 223.801C280.9 223.801 305 226.101 324.3 229.801C344.1 233.801 358 238.801 362.8 244.301V247.101C357 240.101 338.3 235.101 323.8 232.101C304.8 228.501 280.8 226.101 255.9 226.101C229.8 226.101 205.4 228.701 186.6 232.301C171.6 235.301 151.5 241.301 149 247.101V244.201C150.3 240.201 165.3 234.201 186.3 229.901C205.2 226.201 229.6 223.801 255.9 223.801H256ZM256 214.701C278.9 214.655 301.758 216.663 324.3 220.701C344.1 224.701 358 229.701 362.8 235.301V238.001C357 231.101 338.3 226.001 323.8 223.101C304.8 219.401 280.8 217.101 255.9 217.101C232.691 217.028 209.526 219.103 186.7 223.301C172.2 226.001 151.3 232.201 149 238.001V235.201C150.4 231.201 165.6 224.901 186.3 220.901C205.3 217.201 229.6 214.701 256 214.701ZM255.4 168.501C294.7 168.301 329 174.001 344.7 182.001L350.4 192.001C336.8 184.601 299.8 177.001 255.5 178.001C219.4 178.301 180.8 182.001 161.5 192.401L168.3 181.001C184.2 172.701 221.6 168.501 255.4 168.501Z" fill="#FFFF00" stroke="black" stroke-width="0.6" stroke-linecap="round" stroke-linejoin="round"/>
<path fill-rule="evenodd" clip-rule="evenodd" d="M256.001 176.701C276.52 176.355 297.031 177.794 317.301 181.001C333.301 184.001 348.601 188.401 350.801 190.801L352.501 193.801C347.201 190.401 333.901 186.501 316.901 183.301C299.901 180.101 278.201 179.001 255.901 179.101C230.601 179.001 210.901 180.301 194.101 183.301C182.52 184.924 171.276 188.402 160.801 193.601L162.501 190.501C168.501 187.501 177.801 183.801 193.601 180.901C211.101 177.701 231.001 176.801 256.001 176.701ZM256.001 167.701C277.401 167.501 298.601 168.701 315.101 171.701C325.791 173.288 336.136 176.669 345.701 181.701L348.201 185.701C344.001 181.001 328.201 176.501 314.101 174.101C297.701 171.201 277.401 170.101 256.001 169.901C236.08 169.724 216.179 171.195 196.501 174.301C186.212 175.735 176.218 178.807 166.901 183.401L169.101 180.101C174.901 177.101 184.301 174.301 196.101 172.001C215.908 168.855 235.946 167.383 256.001 167.601V167.701ZM308.401 284.001C291.068 281 273.488 279.661 255.901 280.001C190.401 280.801 169.301 293.501 166.701 297.301L161.701 289.301C178.501 277.301 214.101 270.501 256.301 271.101C278.201 271.501 297.101 273.001 312.901 276.101L308.401 284.101" fill="#FFFF00"/>
<path d="M308.401 284.001C291.068 281 273.488 279.661 255.901 280.001C190.401 280.801 169.301 293.501 166.701 297.301L161.701 289.301C178.501 277.301 214.101 270.501 256.301 271.101C278.201 271.501 297.101 273.001 312.901 276.101L308.401 284.101M256.001 176.701C276.52 176.355 297.031 177.794 317.301 181.001C333.301 184.001 348.601 188.401 350.801 190.801L352.501 193.801C347.201 190.401 333.901 186.501 316.901 183.301C299.901 180.101 278.201 179.001 255.901 179.101C230.601 179.001 210.901 180.301 194.101 183.301C182.52 184.924 171.276 188.402 160.801 193.601L162.501 190.501C168.501 187.501 177.801 183.801 193.601 180.901C211.101 177.701 231.001 176.801 256.001 176.701ZM256.001 167.701C277.401 167.501 298.601 168.701 315.101 171.701C325.791 173.288 336.136 176.669 345.701 181.701L348.201 185.701C344.001 181.001 328.201 176.501 314.101 174.101C297.701 171.201 277.401 170.101 256.001 169.901C236.08 169.724 216.179 171.195 196.501 174.301C186.212 175.735 176.218 178.807 166.901 183.401L169.101 180.101C174.901 177.101 184.301 174.301 196.101 172.001C215.908 168.855 235.946 167.383 256.001 167.601V167.701Z" stroke="black" stroke-width="0.6" stroke-linecap="round" stroke-linejoin="round"/>
<path fill-rule="evenodd" clip-rule="evenodd" d="M255.6 278.901C273.8 279.201 291.6 279.901 308.9 283.101L307.7 285.301C291.7 282.301 274.5 281.301 255.7 281.301C231.4 281.101 207 283.401 185.7 289.501C179 291.401 167.9 295.701 166.7 299.301L165.5 297.301C165.9 295.101 172.5 290.701 185.1 287.301C209.5 280.301 232.3 279.001 255.6 278.901ZM256.4 269.701C275.61 269.682 294.784 271.355 313.7 274.701L312.4 277.001C293.929 273.613 275.18 271.972 256.4 272.101C232.2 272.101 206.5 273.901 183.1 280.701C175.6 282.901 162.5 287.701 162.1 291.401L160.9 289.201C161.1 285.801 172.4 281.301 182.6 278.401C206.1 271.501 231.9 269.801 256.4 269.701Z" fill="#FFFF00" stroke="black" stroke-width="0.6" stroke-linecap="round" stroke-linejoin="round"/>
<path fill-rule="evenodd" clip-rule="evenodd" d="M349.401 290.501L341.601 302.801L318.901 282.701L260.301 243.201L194.101 206.901L159.801 195.201L167.101 181.601L169.601 180.301L190.901 185.601L261.301 221.901L301.901 247.501L336.001 272.001L349.901 288.001L349.401 290.501Z" fill="#FFFF00" stroke="black" stroke-width="0.6" stroke-linecap="round" stroke-linejoin="round"/>
<path fill-rule="evenodd" clip-rule="evenodd" d="M158.601 195.502C164.601 191.502 208.801 211.102 255.201 239.102C301.301 267.102 345.501 298.702 341.501 304.602L340.201 306.702L339.601 307.202C339.701 307.102 340.401 306.202 339.601 304.102C337.601 297.602 306.201 272.601 254.301 241.201C203.601 211.101 161.401 192.902 157.301 198.102L158.601 195.502ZM351.001 290.401C354.801 282.801 313.801 251.902 262.901 221.802C210.901 192.302 173.301 174.902 166.401 180.102L165.001 183.002C165.001 183.102 165.001 182.802 165.401 182.502C166.601 181.502 168.701 181.502 169.601 181.502C181.401 181.702 215.101 197.202 262.401 224.302C283.201 236.302 350.001 279.301 349.701 291.301C349.701 292.301 349.801 292.502 349.401 293.102L351.101 290.502L351.001 290.401Z" fill="#FFFF00" stroke="black" stroke-width="0.6" stroke-linecap="round" stroke-linejoin="round"/>
<path d="M192.641 251.767C192.656 260.047 194.314 268.241 197.519 275.876C200.723 283.512 205.409 290.435 211.307 296.247C217.133 302.162 224.072 306.867 231.725 310.089C239.377 313.311 247.591 314.987 255.894 315.02C272.698 315.019 288.813 308.343 300.694 296.46C306.571 290.616 311.236 283.669 314.422 276.018C317.607 268.366 319.249 260.161 319.254 251.873V167.393L192.641 167.18V251.767Z" fill="white" stroke="black" stroke-width="0.746669"/>
<path d="M195.201 251.873C195.224 259.816 196.819 267.676 199.894 274.999C202.97 282.322 207.466 288.963 213.121 294.54C224.478 305.956 239.899 312.401 256.001 312.46C272.076 312.469 287.497 306.101 298.882 294.754C304.518 289.168 308.994 282.522 312.051 275.2C315.108 267.877 316.686 260.022 316.695 252.087V169.953H195.201V251.873ZM292.268 194.593V246.753L292.161 252.193C292.197 256.959 291.271 261.682 289.438 266.081C287.606 270.48 284.904 274.464 281.495 277.793C274.712 284.6 265.504 288.437 255.895 288.46C245.868 288.46 237.015 284.193 230.401 277.58C223.595 270.797 219.758 261.59 219.735 251.98V194.38L292.268 194.593Z" fill="#FF0000" stroke="black" stroke-width="0.533335"/>
<path d="M202.881 191.392C202.988 185.525 207.148 184.139 207.148 184.139C207.254 184.139 211.734 185.632 211.734 191.499L202.881 191.392Z" fill="#FFFF00"/>
<path d="M199.254 184.245L198.507 190.965H202.987C202.987 185.419 207.254 184.565 207.254 184.565C207.36 184.565 211.52 185.739 211.627 190.965H216.107L215.254 184.139L199.254 184.245ZM198.187 191.072H216.32C216.64 191.072 216.96 191.392 216.96 191.819C216.96 192.352 216.64 192.672 216.32 192.672H198.187C197.867 192.672 197.547 192.352 197.547 191.819C197.547 191.392 197.867 191.072 198.294 191.072H198.187Z" fill="#FFFF00" stroke="black" stroke-width="0.533335"/>
<path d="M204.799 190.966C204.799 187.446 207.253 186.486 207.253 186.486C207.253 186.486 209.706 187.553 209.706 190.966H204.799ZM198.613 181.366H215.999C216.319 181.366 216.639 181.793 216.639 182.219C216.639 182.539 216.319 182.859 215.999 182.859H198.613C198.293 182.859 197.973 182.539 197.973 182.113C197.973 181.793 198.293 181.473 198.613 181.473V181.366ZM199.039 182.966H215.466C215.786 182.966 216.106 183.286 216.106 183.713C216.106 184.139 215.786 184.459 215.466 184.459H198.933C198.506 184.459 198.293 184.139 198.293 183.713C198.293 183.286 198.506 182.966 198.933 182.966H199.039ZM204.373 171.659H205.653V172.513H206.613V171.659H207.999V172.619H208.959V171.553H210.239V173.686C210.239 174.113 210.026 174.326 209.706 174.326H205.013C204.693 174.326 204.373 174.113 204.373 173.793V171.659ZM209.279 174.539L209.599 181.366H205.013L205.333 174.433H209.279" fill="#FFFF00"/>
<path d="M209.279 174.539L209.599 181.366H205.013L205.333 174.433H209.279M204.799 190.966C204.799 187.446 207.253 186.486 207.253 186.486C207.253 186.486 209.706 187.553 209.706 190.966H204.799ZM198.613 181.366H215.999C216.319 181.366 216.639 181.793 216.639 182.219C216.639 182.539 216.319 182.859 215.999 182.859H198.613C198.293 182.859 197.973 182.539 197.973 182.113C197.973 181.793 198.293 181.473 198.613 181.473V181.366ZM199.039 182.966H215.466C215.786 182.966 216.106 183.286 216.106 183.713C216.106 184.139 215.786 184.459 215.466 184.459H198.933C198.506 184.459 198.293 184.139 198.293 183.713C198.293 183.286 198.506 182.966 198.933 182.966H199.039ZM204.373 171.659H205.653V172.513H206.613V171.659H207.999V172.619H208.959V171.553H210.239V173.686C210.239 174.113 210.026 174.326 209.706 174.326H205.013C204.693 174.326 204.373 174.113 204.373 173.793V171.659Z" stroke="black" stroke-width="0.533335"/>
<path d="M203.733 177.74V181.367H199.467V177.74H203.733Z" fill="#FFFF00" stroke="black" stroke-width="0.533335"/>
<path d="M215.04 177.74V181.367H210.773V177.74H215.04Z" fill="#FFFF00" stroke="black" stroke-width="0.533335"/>
<path d="M198.721 174.967H200.001V176.033H200.961V174.967H202.241V176.033H203.201V174.967H204.481V177.1C204.481 177.527 204.267 177.74 203.947 177.74H199.361C199.191 177.74 199.028 177.673 198.908 177.553C198.788 177.433 198.721 177.27 198.721 177.1V174.967Z" fill="#FFFF00" stroke="black" stroke-width="0.533335"/>
<path d="M210.027 174.967H211.307V176.033H212.267V174.967H213.547V176.033H214.507V174.967H215.787V177.1C215.787 177.527 215.574 177.74 215.254 177.74H210.667C210.498 177.74 210.335 177.673 210.215 177.553C210.095 177.433 210.027 177.27 210.027 177.1V174.967Z" fill="#FFFF00" stroke="black" stroke-width="0.533335"/>
<path d="M206.826 176.673C206.826 176.033 207.786 176.033 207.786 176.673V178.38H206.826V176.673Z" fill="#000001"/>
<path d="M201.174 179.019C201.174 178.379 202.027 178.379 202.027 179.019V180.299H201.174V179.019Z" fill="#000001"/>
<path d="M212.48 179.019C212.48 178.379 213.334 178.379 213.334 179.019V180.299H212.48V179.019Z" fill="#000001"/>
<path d="M202.881 240.779C202.988 234.912 207.148 233.525 207.148 233.525C207.254 233.525 211.734 235.019 211.734 240.885L202.881 240.779Z" fill="#FFFF00"/>
<path d="M199.254 233.632L198.507 240.352H202.987C202.987 234.805 207.254 233.952 207.254 233.952C207.36 233.952 211.52 235.125 211.627 240.352H216.107L215.254 233.525L199.254 233.632ZM198.187 240.459H216.32C216.64 240.459 216.96 240.779 216.96 241.205C216.96 241.739 216.64 242.059 216.32 242.059H198.187C197.867 242.059 197.547 241.739 197.547 241.205C197.547 240.779 197.867 240.459 198.294 240.459H198.187Z" fill="#FFFF00" stroke="black" stroke-width="0.533335"/>
<path d="M204.799 240.353C204.799 236.833 207.253 235.873 207.253 235.873C207.253 235.873 209.706 236.94 209.706 240.353H204.799ZM198.613 230.753H215.999C216.319 230.753 216.639 231.179 216.639 231.606C216.639 231.926 216.319 232.246 215.999 232.246H198.613C198.293 232.246 197.973 231.926 197.973 231.499C197.973 231.179 198.293 230.859 198.613 230.859V230.753ZM199.039 232.353H215.466C215.786 232.353 216.106 232.673 216.106 233.099C216.106 233.526 215.786 233.846 215.466 233.846H198.933C198.506 233.846 198.293 233.526 198.293 233.099C198.293 232.673 198.506 232.353 198.933 232.353H199.039ZM204.373 221.046H205.653V221.899H206.613V221.046H207.999V222.006H208.959V220.939H210.239V223.073C210.239 223.499 210.026 223.713 209.706 223.713H205.013C204.693 223.713 204.373 223.499 204.373 223.179V221.046ZM209.279 223.926L209.599 230.753H205.013L205.333 223.819H209.279" fill="#FFFF00"/>
<path d="M209.279 223.926L209.599 230.753H205.013L205.333 223.819H209.279M204.799 240.353C204.799 236.833 207.253 235.873 207.253 235.873C207.253 235.873 209.706 236.94 209.706 240.353H204.799ZM198.613 230.753H215.999C216.319 230.753 216.639 231.179 216.639 231.606C216.639 231.926 216.319 232.246 215.999 232.246H198.613C198.293 232.246 197.973 231.926 197.973 231.499C197.973 231.179 198.293 230.859 198.613 230.859V230.753ZM199.039 232.353H215.466C215.786 232.353 216.106 232.673 216.106 233.099C216.106 233.526 215.786 233.846 215.466 233.846H198.933C198.506 233.846 198.293 233.526 198.293 233.099C198.293 232.673 198.506 232.353 198.933 232.353H199.039ZM204.373 221.046H205.653V221.899H206.613V221.046H207.999V222.006H208.959V220.939H210.239V223.073C210.239 223.499 210.026 223.713 209.706 223.713H205.013C204.693 223.713 204.373 223.499 204.373 223.179V221.046Z" stroke="black" stroke-width="0.533335"/>
<path d="M203.733 227.127V230.754H199.467V227.127H203.733Z" fill="#FFFF00" stroke="black" stroke-width="0.533335"/>
<path d="M215.04 227.127V230.754H210.773V227.127H215.04Z" fill="#FFFF00" stroke="black" stroke-width="0.533335"/>
<path d="M198.721 224.354H200.001V225.42H200.961V224.354H202.241V225.42H203.201V224.354H204.481V226.487C204.481 226.914 204.267 227.127 203.947 227.127H199.361C199.191 227.127 199.028 227.059 198.908 226.939C198.788 226.819 198.721 226.657 198.721 226.487V224.354Z" fill="#FFFF00" stroke="black" stroke-width="0.533335"/>
<path d="M210.027 224.354H211.307V225.42H212.267V224.354H213.547V225.42H214.507V224.354H215.787V226.487C215.787 226.914 215.574 227.127 215.254 227.127H210.667C210.498 227.127 210.335 227.059 210.215 226.939C210.095 226.819 210.027 226.657 210.027 226.487V224.354Z" fill="#FFFF00" stroke="black" stroke-width="0.533335"/>
<path d="M206.826 226.06C206.826 225.42 207.786 225.42 207.786 226.06V227.767H206.826V226.06Z" fill="#000001"/>
<path d="M201.174 228.406C201.174 227.766 202.027 227.766 202.027 228.406V229.686H201.174V228.406Z" fill="#000001"/>
<path d="M212.48 228.406C212.48 227.766 213.334 227.766 213.334 228.406V229.686H212.48V228.406Z" fill="#000001"/>
<path d="M222.131 292.252C218.043 288.042 219.991 284.113 219.991 284.113C220.066 284.037 224.282 281.911 228.445 286.045L222.131 292.252Z" fill="#FFFF00"/>
<path d="M214.505 289.79L218.747 295.055L221.904 291.876C217.968 287.968 220.369 284.339 220.369 284.339C220.444 284.263 224.208 282.138 227.992 285.745L231.149 282.566L225.703 278.362L214.505 289.79ZM218.597 295.357L231.375 282.49C231.6 282.263 232.053 282.262 232.355 282.562C232.734 282.938 232.735 283.391 232.51 283.618L219.733 296.485C219.507 296.712 219.055 296.713 218.676 296.337C218.373 296.037 218.372 295.584 218.672 295.281L218.597 295.357Z" fill="#FFFF00" stroke="black" stroke-width="0.533335"/>
<path d="M223.181 290.589C220.683 288.109 221.731 285.692 221.731 285.692C221.731 285.692 224.217 284.702 226.639 287.108L223.181 290.589ZM212.01 288.215L224.261 275.878C224.487 275.65 225.015 275.724 225.318 276.025C225.545 276.25 225.546 276.703 225.321 276.93L213.07 289.267C212.844 289.494 212.392 289.496 212.089 289.195C211.862 288.969 211.86 288.517 212.086 288.29L212.01 288.215ZM213.446 289.039L225.021 277.383C225.246 277.156 225.699 277.155 226.002 277.455C226.304 277.756 226.306 278.209 226.08 278.436L214.43 290.167C214.13 290.47 213.752 290.396 213.45 290.095C213.147 289.795 213.07 289.418 213.371 289.115L213.446 289.039ZM209.181 277.288L210.083 276.38L210.688 276.981L211.365 276.3L210.759 275.698L211.737 274.714L212.418 275.391L213.094 274.71L212.337 273.958L213.239 273.05L214.753 274.553C215.056 274.854 215.057 275.155 214.831 275.382L211.524 278.713C211.299 278.94 210.922 279.017 210.695 278.791L209.181 277.288ZM214.682 275.836L219.752 280.419L216.52 283.673L211.825 278.561L214.606 275.76" fill="#FFFF00"/>
<path d="M214.682 275.836L219.752 280.419L216.52 283.673L211.825 278.561L214.606 275.76M223.181 290.589C220.683 288.109 221.731 285.692 221.731 285.692C221.731 285.692 224.217 284.702 226.639 287.108L223.181 290.589ZM212.01 288.215L224.261 275.878C224.487 275.65 225.015 275.724 225.318 276.025C225.545 276.25 225.546 276.703 225.321 276.93L213.07 289.267C212.844 289.494 212.392 289.496 212.089 289.195C211.862 288.969 211.86 288.517 212.086 288.29L212.01 288.215ZM213.446 289.039L225.021 277.383C225.246 277.156 225.699 277.155 226.002 277.455C226.304 277.756 226.306 278.209 226.08 278.436L214.43 290.167C214.13 290.47 213.752 290.396 213.45 290.095C213.147 289.795 213.07 289.418 213.371 289.115L213.446 289.039ZM209.181 277.288L210.083 276.38L210.688 276.981L211.365 276.3L210.759 275.698L211.737 274.714L212.418 275.391L213.094 274.71L212.337 273.958L213.239 273.05L214.753 274.553C215.056 274.854 215.057 275.155 214.831 275.382L211.524 278.713C211.299 278.94 210.922 279.017 210.695 278.791L209.181 277.288Z" stroke="black" stroke-width="0.533335"/>
<path d="M213.044 282.025L215.617 284.581L212.61 287.608L210.037 285.053L213.044 282.025Z" fill="#FFFF00" stroke="black" stroke-width="0.533335"/>
<path d="M221.01 274.004L223.584 276.559L220.577 279.587L218.004 277.031L221.01 274.004Z" fill="#FFFF00" stroke="black" stroke-width="0.533335"/>
<path d="M207.543 283.629L208.445 282.721L209.202 283.472L209.878 282.791L209.121 282.039L210.023 281.131L210.78 281.883L211.457 281.202L210.7 280.45L211.602 279.542L213.115 281.045C213.418 281.346 213.419 281.647 213.194 281.874L209.962 285.129C209.842 285.249 209.68 285.317 209.51 285.318C209.34 285.319 209.177 285.252 209.057 285.132L207.543 283.629Z" fill="#FFFF00" stroke="black" stroke-width="0.533335"/>
<path d="M215.512 275.605L216.414 274.697L217.171 275.449L217.847 274.768L217.09 274.016L217.992 273.108L218.749 273.859L219.425 273.178L218.668 272.427L219.57 271.518L221.084 273.022C221.387 273.322 221.388 273.624 221.163 273.851L217.931 277.106C217.811 277.226 217.648 277.294 217.479 277.295C217.309 277.295 217.146 277.228 217.025 277.109L215.512 275.605Z" fill="#FFFF00" stroke="black" stroke-width="0.533335"/>
<path d="M214.468 279.08C214.013 278.629 214.69 277.948 215.144 278.399L216.355 279.602L215.679 280.283L214.468 279.08Z" fill="#000001"/>
<path d="M212.149 284.744C211.695 284.294 212.296 283.688 212.75 284.139L213.659 285.041L213.057 285.646L212.149 284.744Z" fill="#000001"/>
<path d="M220.116 276.721C219.662 276.27 220.263 275.665 220.717 276.116L221.626 277.017L221.024 277.623L220.116 276.721Z" fill="#000001"/>
<path d="M251.629 191.392C251.736 185.525 255.896 184.139 255.896 184.139C256.002 184.139 260.482 185.632 260.482 191.499L251.629 191.392Z" fill="#FFFF00"/>
<path d="M248.002 184.245L247.255 190.965H251.735C251.735 185.419 256.002 184.565 256.002 184.565C256.108 184.565 260.268 185.739 260.375 190.965H264.855L264.002 184.139L248.002 184.245ZM246.935 191.072H265.068C265.388 191.072 265.708 191.392 265.708 191.819C265.708 192.352 265.388 192.672 265.068 192.672H246.935C246.615 192.672 246.295 192.352 246.295 191.819C246.295 191.392 246.615 191.072 247.042 191.072H246.935Z" fill="#FFFF00" stroke="black" stroke-width="0.533335"/>
<path d="M253.547 190.966C253.547 187.446 256.001 186.486 256.001 186.486C256.001 186.486 258.454 187.553 258.454 190.966H253.547ZM247.361 181.366H264.747C265.067 181.366 265.387 181.793 265.387 182.219C265.387 182.539 265.067 182.859 264.747 182.859H247.361C247.041 182.859 246.721 182.539 246.721 182.113C246.721 181.793 247.041 181.473 247.361 181.473V181.366ZM247.787 182.966H264.214C264.534 182.966 264.854 183.286 264.854 183.713C264.854 184.139 264.534 184.459 264.214 184.459H247.681C247.254 184.459 247.041 184.139 247.041 183.713C247.041 183.286 247.254 182.966 247.681 182.966H247.787ZM253.121 171.659H254.401V172.513H255.361V171.659H256.747V172.619H257.707V171.553H258.987V173.686C258.987 174.113 258.774 174.326 258.454 174.326H253.761C253.441 174.326 253.121 174.113 253.121 173.793V171.659ZM258.027 174.539L258.347 181.366H253.761L254.081 174.433H258.027" fill="#FFFF00"/>
<path d="M258.027 174.539L258.347 181.366H253.761L254.081 174.433H258.027M253.547 190.966C253.547 187.446 256.001 186.486 256.001 186.486C256.001 186.486 258.454 187.553 258.454 190.966H253.547ZM247.361 181.366H264.747C265.067 181.366 265.387 181.793 265.387 182.219C265.387 182.539 265.067 182.859 264.747 182.859H247.361C247.041 182.859 246.721 182.539 246.721 182.113C246.721 181.793 247.041 181.473 247.361 181.473V181.366ZM247.787 182.966H264.214C264.534 182.966 264.854 183.286 264.854 183.713C264.854 184.139 264.534 184.459 264.214 184.459H247.681C247.254 184.459 247.041 184.139 247.041 183.713C247.041 183.286 247.254 182.966 247.681 182.966H247.787ZM253.121 171.659H254.401V172.513H255.361V171.659H256.747V172.619H257.707V171.553H258.987V173.686C258.987 174.113 258.774 174.326 258.454 174.326H253.761C253.441 174.326 253.121 174.113 253.121 173.793V171.659Z" stroke="black" stroke-width="0.533335"/>
<path d="M252.482 177.74V181.367H248.215V177.74H252.482Z" fill="#FFFF00" stroke="black" stroke-width="0.533335"/>
<path d="M263.788 177.74V181.367H259.521V177.74H263.788Z" fill="#FFFF00" stroke="black" stroke-width="0.533335"/>
<path d="M247.469 174.967H248.749V176.033H249.709V174.967H250.989V176.033H251.949V174.967H253.229V177.1C253.229 177.527 253.015 177.74 252.695 177.74H248.109C247.939 177.74 247.776 177.673 247.656 177.553C247.536 177.433 247.469 177.27 247.469 177.1V174.967Z" fill="#FFFF00" stroke="black" stroke-width="0.533335"/>
<path d="M258.775 174.967H260.055V176.033H261.015V174.967H262.295V176.033H263.255V174.967H264.535V177.1C264.535 177.527 264.322 177.74 264.002 177.74H259.415C259.246 177.74 259.083 177.673 258.963 177.553C258.843 177.433 258.775 177.27 258.775 177.1V174.967Z" fill="#FFFF00" stroke="black" stroke-width="0.533335"/>
<path d="M255.574 176.673C255.574 176.033 256.534 176.033 256.534 176.673V178.38H255.574V176.673Z" fill="#000001"/>
<path d="M249.922 179.019C249.922 178.379 250.775 178.379 250.775 179.019V180.299H249.922V179.019Z" fill="#000001"/>
<path d="M261.229 179.019C261.229 178.379 262.082 178.379 262.082 179.019V180.299H261.229V179.019Z" fill="#000001"/>
<path d="M308.906 191.392C308.8 185.525 304.64 184.139 304.64 184.139C304.533 184.139 300.053 185.632 300.053 191.499L308.906 191.392Z" fill="#FFFF00"/>
<path d="M312.534 184.245L313.28 190.965H308.8C308.8 185.419 304.534 184.565 304.534 184.565C304.427 184.565 300.267 185.739 300.16 190.965H295.68L296.534 184.139L312.534 184.245ZM313.6 191.072H295.467C295.147 191.072 294.827 191.392 294.827 191.819C294.827 192.352 295.147 192.672 295.467 192.672H313.6C313.92 192.672 314.24 192.352 314.24 191.819C314.24 191.392 313.92 191.072 313.494 191.072H313.6Z" fill="#FFFF00" stroke="black" stroke-width="0.533335"/>
<path d="M306.988 190.966C306.988 187.446 304.534 186.486 304.534 186.486C304.534 186.486 302.081 187.553 302.081 190.966H306.988ZM313.174 181.366H295.788C295.468 181.366 295.148 181.793 295.148 182.219C295.148 182.539 295.468 182.859 295.788 182.859H313.174C313.494 182.859 313.814 182.539 313.814 182.113C313.814 181.793 313.494 181.473 313.174 181.473V181.366ZM312.748 182.966H296.321C296.001 182.966 295.681 183.286 295.681 183.713C295.681 184.139 296.001 184.459 296.321 184.459H312.854C313.281 184.459 313.494 184.139 313.494 183.713C313.494 183.286 313.281 182.966 312.854 182.966H312.748ZM307.414 171.659H306.134V172.513H305.174V171.659H303.788V172.619H302.828V171.553H301.548V173.686C301.548 174.113 301.761 174.326 302.081 174.326H306.774C307.094 174.326 307.414 174.113 307.414 173.793V171.659ZM302.508 174.539L302.188 181.366H306.774L306.454 174.433H302.508" fill="#FFFF00"/>
<path d="M302.508 174.539L302.188 181.366H306.774L306.454 174.433H302.508M306.988 190.966C306.988 187.446 304.534 186.486 304.534 186.486C304.534 186.486 302.081 187.553 302.081 190.966H306.988ZM313.174 181.366H295.788C295.468 181.366 295.148 181.793 295.148 182.219C295.148 182.539 295.468 182.859 295.788 182.859H313.174C313.494 182.859 313.814 182.539 313.814 182.113C313.814 181.793 313.494 181.473 313.174 181.473V181.366ZM312.748 182.966H296.321C296.001 182.966 295.681 183.286 295.681 183.713C295.681 184.139 296.001 184.459 296.321 184.459H312.854C313.281 184.459 313.494 184.139 313.494 183.713C313.494 183.286 313.281 182.966 312.854 182.966H312.748ZM307.414 171.659H306.134V172.513H305.174V171.659H303.788V172.619H302.828V171.553H301.548V173.686C301.548 174.113 301.761 174.326 302.081 174.326H306.774C307.094 174.326 307.414 174.113 307.414 173.793V171.659Z" stroke="black" stroke-width="0.533335"/>
<path d="M308.054 177.74V181.367H312.32V177.74H308.054Z" fill="#FFFF00" stroke="black" stroke-width="0.533335"/>
<path d="M296.747 177.74V181.367H301.014V177.74H296.747Z" fill="#FFFF00" stroke="black" stroke-width="0.533335"/>
<path d="M313.066 174.967H311.786V176.033H310.826V174.967H309.546V176.033H308.586V174.967H307.306V177.1C307.306 177.527 307.52 177.74 307.84 177.74H312.426C312.596 177.74 312.759 177.673 312.879 177.553C312.999 177.433 313.066 177.27 313.066 177.1V174.967Z" fill="#FFFF00" stroke="black" stroke-width="0.533335"/>
<path d="M301.76 174.967H300.48V176.033H299.52V174.967H298.24V176.033H297.28V174.967H296V177.1C296 177.527 296.213 177.74 296.533 177.74H301.12C301.29 177.74 301.452 177.673 301.572 177.553C301.692 177.433 301.76 177.27 301.76 177.1V174.967Z" fill="#FFFF00" stroke="black" stroke-width="0.533335"/>
<path d="M304.961 176.673C304.961 176.033 304.001 176.033 304.001 176.673V178.38H304.961V176.673Z" fill="#000001"/>
<path d="M310.613 179.019C310.613 178.379 309.76 178.379 309.76 179.019V180.299H310.613V179.019Z" fill="#000001"/>
<path d="M299.307 179.019C299.307 178.379 298.453 178.379 298.453 179.019V180.299H299.307V179.019Z" fill="#000001"/>
<path d="M308.906 240.779C308.8 234.912 304.64 233.525 304.64 233.525C304.533 233.525 300.053 235.019 300.053 240.885L308.906 240.779Z" fill="#FFFF00"/>
<path d="M312.534 233.632L313.28 240.352H308.8C308.8 234.805 304.534 233.952 304.534 233.952C304.427 233.952 300.267 235.125 300.16 240.352H295.68L296.534 233.525L312.534 233.632ZM313.6 240.459H295.467C295.147 240.459 294.827 240.779 294.827 241.205C294.827 241.739 295.147 242.059 295.467 242.059H313.6C313.92 242.059 314.24 241.739 314.24 241.205C314.24 240.779 313.92 240.459 313.494 240.459H313.6Z" fill="#FFFF00" stroke="black" stroke-width="0.533335"/>
<path d="M306.988 240.353C306.988 236.833 304.534 235.873 304.534 235.873C304.534 235.873 302.081 236.94 302.081 240.353H306.988ZM313.174 230.753H295.788C295.468 230.753 295.148 231.179 295.148 231.606C295.148 231.926 295.468 232.246 295.788 232.246H313.174C313.494 232.246 313.814 231.926 313.814 231.499C313.814 231.179 313.494 230.859 313.174 230.859V230.753ZM312.748 232.353H296.321C296.001 232.353 295.681 232.673 295.681 233.099C295.681 233.526 296.001 233.846 296.321 233.846H312.854C313.281 233.846 313.494 233.526 313.494 233.099C313.494 232.673 313.281 232.353 312.854 232.353H312.748ZM307.414 221.046H306.134V221.899H305.174V221.046H303.788V222.006H302.828V220.939H301.548V223.073C301.548 223.499 301.761 223.713 302.081 223.713H306.774C307.094 223.713 307.414 223.499 307.414 223.179V221.046ZM302.508 223.926L302.188 230.753H306.774L306.454 223.819H302.508" fill="#FFFF00"/>
<path d="M302.508 223.926L302.188 230.753H306.774L306.454 223.819H302.508M306.988 240.353C306.988 236.833 304.534 235.873 304.534 235.873C304.534 235.873 302.081 236.94 302.081 240.353H306.988ZM313.174 230.753H295.788C295.468 230.753 295.148 231.179 295.148 231.606C295.148 231.926 295.468 232.246 295.788 232.246H313.174C313.494 232.246 313.814 231.926 313.814 231.499C313.814 231.179 313.494 230.859 313.174 230.859V230.753ZM312.748 232.353H296.321C296.001 232.353 295.681 232.673 295.681 233.099C295.681 233.526 296.001 233.846 296.321 233.846H312.854C313.281 233.846 313.494 233.526 313.494 233.099C313.494 232.673 313.281 232.353 312.854 232.353H312.748ZM307.414 221.046H306.134V221.899H305.174V221.046H303.788V222.006H302.828V220.939H301.548V223.073C301.548 223.499 301.761 223.713 302.081 223.713H306.774C307.094 223.713 307.414 223.499 307.414 223.179V221.046Z" stroke="black" stroke-width="0.533335"/>
<path d="M308.054 227.127V230.754H312.32V227.127H308.054Z" fill="#FFFF00" stroke="black" stroke-width="0.533335"/>
<path d="M296.747 227.127V230.754H301.014V227.127H296.747Z" fill="#FFFF00" stroke="black" stroke-width="0.533335"/>
<path d="M313.066 224.354H311.786V225.42H310.826V224.354H309.546V225.42H308.586V224.354H307.306V226.487C307.306 226.914 307.52 227.127 307.84 227.127H312.426C312.596 227.127 312.759 227.059 312.879 226.939C312.999 226.819 313.066 226.657 313.066 226.487V224.354Z" fill="#FFFF00" stroke="black" stroke-width="0.533335"/>
<path d="M301.76 224.354H300.48V225.42H299.52V224.354H298.24V225.42H297.28V224.354H296V226.487C296 226.914 296.213 227.127 296.533 227.127H301.12C301.29 227.127 301.452 227.059 301.572 226.939C301.692 226.819 301.76 226.657 301.76 226.487V224.354Z" fill="#FFFF00" stroke="black" stroke-width="0.533335"/>
<path d="M304.961 226.06C304.961 225.42 304.001 225.42 304.001 226.06V227.767H304.961V226.06Z" fill="#000001"/>
<path d="M310.613 228.406C310.613 227.766 309.76 227.766 309.76 228.406V229.686H310.613V228.406Z" fill="#000001"/>
<path d="M299.307 228.406C299.307 227.766 298.453 227.766 298.453 228.406V229.686H299.307V228.406Z" fill="#000001"/>
<path d="M289.656 292.252C293.744 288.042 291.796 284.113 291.796 284.113C291.721 284.037 287.505 281.911 283.342 286.045L289.656 292.252Z" fill="#FFFF00"/>
<path d="M297.282 289.79L293.04 295.055L289.883 291.876C293.819 287.968 291.418 284.339 291.418 284.339C291.343 284.263 287.579 282.138 283.795 285.745L280.638 282.566L286.084 278.362L297.282 289.79ZM293.19 295.357L280.412 282.49C280.187 282.263 279.734 282.262 279.432 282.562C279.053 282.938 279.052 283.391 279.277 283.618L292.055 296.485C292.28 296.712 292.733 296.713 293.111 296.337C293.414 296.037 293.415 295.584 293.115 295.281L293.19 295.357Z" fill="#FFFF00" stroke="black" stroke-width="0.533335"/>
<path d="M288.606 290.589C291.104 288.109 290.056 285.692 290.056 285.692C290.056 285.692 287.571 284.702 285.148 287.108L288.606 290.589ZM299.777 288.215L287.526 275.878C287.3 275.65 286.772 275.724 286.469 276.025C286.242 276.25 286.241 276.703 286.466 276.93L298.718 289.267C298.943 289.494 299.396 289.496 299.698 289.195C299.925 288.969 299.927 288.517 299.701 288.29L299.777 288.215ZM298.341 289.039L286.766 277.383C286.541 277.156 286.088 277.155 285.786 277.455C285.483 277.756 285.481 278.209 285.707 278.436L297.357 290.167C297.657 290.47 298.035 290.396 298.338 290.095C298.64 289.795 298.717 289.418 298.416 289.115L298.341 289.039ZM302.606 277.288L301.704 276.38L301.099 276.981L300.422 276.3L301.028 275.698L300.051 274.714L299.369 275.391L298.693 274.71L299.45 273.958L298.548 273.05L297.034 274.553C296.731 274.854 296.73 275.155 296.956 275.382L300.263 278.713C300.488 278.94 300.865 279.017 301.092 278.791L302.606 277.288ZM297.105 275.836L292.036 280.419L295.267 283.673L299.962 278.561L297.181 275.76" fill="#FFFF00"/>
<path d="M297.105 275.836L292.036 280.419L295.267 283.673L299.962 278.561L297.181 275.76M288.606 290.589C291.104 288.109 290.056 285.692 290.056 285.692C290.056 285.692 287.571 284.702 285.148 287.108L288.606 290.589ZM299.777 288.215L287.526 275.878C287.3 275.65 286.772 275.724 286.469 276.025C286.242 276.25 286.241 276.703 286.466 276.93L298.718 289.267C298.943 289.494 299.396 289.496 299.698 289.195C299.925 288.969 299.927 288.517 299.701 288.29L299.777 288.215ZM298.341 289.039L286.766 277.383C286.541 277.156 286.088 277.155 285.786 277.455C285.483 277.756 285.481 278.209 285.707 278.436L297.357 290.167C297.657 290.47 298.035 290.396 298.338 290.095C298.64 289.795 298.717 289.418 298.416 289.115L298.341 289.039ZM302.606 277.288L301.704 276.38L301.099 276.981L300.422 276.3L301.028 275.698L300.051 274.714L299.369 275.391L298.693 274.71L299.45 273.958L298.548 273.05L297.034 274.553C296.731 274.854 296.73 275.155 296.956 275.382L300.263 278.713C300.488 278.94 300.865 279.017 301.092 278.791L302.606 277.288Z" stroke="black" stroke-width="0.533335"/>
<path d="M298.744 282.025L296.17 284.581L299.177 287.608L301.75 285.053L298.744 282.025Z" fill="#FFFF00" stroke="black" stroke-width="0.533335"/>
<path d="M290.777 274.004L288.203 276.559L291.21 279.587L293.783 277.031L290.777 274.004Z" fill="#FFFF00" stroke="black" stroke-width="0.533335"/>
<path d="M304.244 283.629L303.342 282.721L302.585 283.472L301.909 282.791L302.666 282.039L301.764 281.131L301.007 281.883L300.33 281.202L301.087 280.45L300.185 279.542L298.672 281.045C298.369 281.346 298.368 281.647 298.593 281.874L301.825 285.129C301.945 285.249 302.107 285.317 302.277 285.318C302.447 285.319 302.61 285.252 302.73 285.132L304.244 283.629Z" fill="#FFFF00" stroke="black" stroke-width="0.533335"/>
<path d="M296.275 275.605L295.373 274.697L294.617 275.449L293.94 274.768L294.697 274.016L293.795 273.108L293.038 273.859L292.362 273.178L293.119 272.427L292.217 271.518L290.703 273.022C290.4 273.322 290.399 273.624 290.625 273.851L293.857 277.106C293.976 277.226 294.139 277.294 294.308 277.295C294.478 277.295 294.641 277.228 294.762 277.109L296.275 275.605Z" fill="#FFFF00" stroke="black" stroke-width="0.533335"/>
<path d="M297.32 279.08C297.774 278.629 297.097 277.948 296.643 278.399L295.432 279.602L296.109 280.283L297.32 279.08Z" fill="#000001"/>
<path d="M299.638 284.744C300.092 284.294 299.491 283.688 299.037 284.139L298.128 285.041L298.73 285.646L299.638 284.744Z" fill="#000001"/>
<path d="M291.671 276.721C292.125 276.27 291.524 275.665 291.07 276.116L290.162 277.017L290.763 277.623L291.671 276.721Z" fill="#000001"/>
<path d="M248.108 242.592C248.088 244.844 248.928 247.018 250.454 248.672C251.167 249.469 252.038 250.108 253.011 250.549C253.984 250.99 255.039 251.222 256.108 251.232C258.348 251.232 260.374 250.166 261.761 248.672C263.288 247.018 264.127 244.844 264.108 242.592V231.072H248.108V242.592Z" fill="#003399"/>
<path d="M251.84 237.046C252.724 237.046 253.44 236.329 253.44 235.446C253.44 234.562 252.724 233.846 251.84 233.846C250.957 233.846 250.24 234.562 250.24 235.446C250.24 236.329 250.957 237.046 251.84 237.046Z" fill="white"/>
<path d="M260.694 237.046C261.577 237.046 262.294 236.329 262.294 235.446C262.294 234.562 261.577 233.846 260.694 233.846C259.81 233.846 259.094 234.562 259.094 235.446C259.094 236.329 259.81 237.046 260.694 237.046Z" fill="white"/>
<path d="M256.215 241.311C257.099 241.311 257.815 240.595 257.815 239.711C257.815 238.828 257.099 238.111 256.215 238.111C255.332 238.111 254.615 238.828 254.615 239.711C254.615 240.595 255.332 241.311 256.215 241.311Z" fill="white"/>
<path d="M251.84 245.792C252.724 245.792 253.44 245.075 253.44 244.192C253.44 243.308 252.724 242.592 251.84 242.592C250.957 242.592 250.24 243.308 250.24 244.192C250.24 245.075 250.957 245.792 251.84 245.792Z" fill="white"/>
<path d="M260.694 245.792C261.577 245.792 262.294 245.075 262.294 244.192C262.294 243.308 261.577 242.592 260.694 242.592C259.81 242.592 259.094 243.308 259.094 244.192C259.094 245.075 259.81 245.792 260.694 245.792Z" fill="white"/>
<path d="M248.108 214.86C248.088 217.111 248.928 219.285 250.454 220.94C251.167 221.736 252.038 222.376 253.011 222.816C253.984 223.257 255.039 223.49 256.108 223.5C258.348 223.5 260.374 222.433 261.761 220.94C263.288 219.285 264.127 217.111 264.108 214.86V203.34H248.108V214.86Z" fill="#003399"/>
<path d="M251.84 209.313C252.724 209.313 253.44 208.597 253.44 207.713C253.44 206.83 252.724 206.113 251.84 206.113C250.957 206.113 250.24 206.83 250.24 207.713C250.24 208.597 250.957 209.313 251.84 209.313Z" fill="white"/>
<path d="M260.694 209.313C261.577 209.313 262.294 208.597 262.294 207.713C262.294 206.83 261.577 206.113 260.694 206.113C259.81 206.113 259.094 206.83 259.094 207.713C259.094 208.597 259.81 209.313 260.694 209.313Z" fill="white"/>
<path d="M256.215 213.579C257.099 213.579 257.815 212.863 257.815 211.979C257.815 211.095 257.099 210.379 256.215 210.379C255.332 210.379 254.615 211.095 254.615 211.979C254.615 212.863 255.332 213.579 256.215 213.579Z" fill="white"/>
<path d="M251.84 218.059C252.724 218.059 253.44 217.343 253.44 216.459C253.44 215.576 252.724 214.859 251.84 214.859C250.957 214.859 250.24 215.576 250.24 216.459C250.24 217.343 250.957 218.059 251.84 218.059Z" fill="white"/>
<path d="M260.694 218.059C261.577 218.059 262.294 217.343 262.294 216.459C262.294 215.576 261.577 214.859 260.694 214.859C259.81 214.859 259.094 215.576 259.094 216.459C259.094 217.343 259.81 218.059 260.694 218.059Z" fill="white"/>
<path d="M225.92 242.592C225.901 244.844 226.74 247.018 228.267 248.672C228.979 249.469 229.85 250.108 230.824 250.549C231.797 250.99 232.852 251.222 233.92 251.232C236.16 251.232 238.187 250.166 239.574 248.672C241.1 247.018 241.94 244.844 241.92 242.592V231.072H225.92V242.592Z" fill="#003399"/>
<path d="M229.653 237.046C230.536 237.046 231.253 236.329 231.253 235.446C231.253 234.562 230.536 233.846 229.653 233.846C228.769 233.846 228.053 234.562 228.053 235.446C228.053 236.329 228.769 237.046 229.653 237.046Z" fill="white"/>
<path d="M238.506 237.046C239.39 237.046 240.106 236.329 240.106 235.446C240.106 234.562 239.39 233.846 238.506 233.846C237.623 233.846 236.906 234.562 236.906 235.446C236.906 236.329 237.623 237.046 238.506 237.046Z" fill="white"/>
<path d="M234.028 241.311C234.911 241.311 235.628 240.595 235.628 239.711C235.628 238.828 234.911 238.111 234.028 238.111C233.144 238.111 232.428 238.828 232.428 239.711C232.428 240.595 233.144 241.311 234.028 241.311Z" fill="white"/>
<path d="M229.653 245.792C230.536 245.792 231.253 245.075 231.253 244.192C231.253 243.308 230.536 242.592 229.653 242.592C228.769 242.592 228.053 243.308 228.053 244.192C228.053 245.075 228.769 245.792 229.653 245.792Z" fill="white"/>
<path d="M238.506 245.792C239.39 245.792 240.106 245.075 240.106 244.192C240.106 243.308 239.39 242.592 238.506 242.592C237.623 242.592 236.906 243.308 236.906 244.192C236.906 245.075 237.623 245.792 238.506 245.792Z" fill="white"/>
<path d="M270.293 242.592C270.274 244.844 271.113 247.018 272.64 248.672C273.352 249.469 274.223 250.108 275.197 250.549C276.17 250.99 277.225 251.222 278.293 251.232C280.533 251.232 282.56 250.166 283.947 248.672C285.474 247.018 286.313 244.844 286.293 242.592V231.072H270.293V242.592Z" fill="#003399"/>
<path d="M274.026 237.046C274.909 237.046 275.626 236.329 275.626 235.446C275.626 234.562 274.909 233.846 274.026 233.846C273.142 233.846 272.426 234.562 272.426 235.446C272.426 236.329 273.142 237.046 274.026 237.046Z" fill="white"/>
<path d="M282.879 237.046C283.763 237.046 284.479 236.329 284.479 235.446C284.479 234.562 283.763 233.846 282.879 233.846C281.996 233.846 281.279 234.562 281.279 235.446C281.279 236.329 281.996 237.046 282.879 237.046Z" fill="white"/>
<path d="M278.401 241.311C279.284 241.311 280.001 240.595 280.001 239.711C280.001 238.828 279.284 238.111 278.401 238.111C277.517 238.111 276.801 238.828 276.801 239.711C276.801 240.595 277.517 241.311 278.401 241.311Z" fill="white"/>
<path d="M274.026 245.792C274.909 245.792 275.626 245.075 275.626 244.192C275.626 243.308 274.909 242.592 274.026 242.592C273.142 242.592 272.426 243.308 272.426 244.192C272.426 245.075 273.142 245.792 274.026 245.792Z" fill="white"/>
<path d="M282.879 245.792C283.763 245.792 284.479 245.075 284.479 244.192C284.479 243.308 283.763 242.592 282.879 242.592C281.996 242.592 281.279 243.308 281.279 244.192C281.279 245.075 281.996 245.792 282.879 245.792Z" fill="white"/>
<path d="M248.108 270.114C248.088 272.365 248.928 274.539 250.454 276.194C251.167 276.99 252.038 277.629 253.011 278.07C253.984 278.511 255.039 278.744 256.108 278.754C258.348 278.754 260.374 277.687 261.761 276.194C263.288 274.539 264.127 272.365 264.108 270.114V258.594H248.108V270.114Z" fill="#003399"/>
<path d="M251.84 264.567C252.724 264.567 253.44 263.851 253.44 262.967C253.44 262.084 252.724 261.367 251.84 261.367C250.957 261.367 250.24 262.084 250.24 262.967C250.24 263.851 250.957 264.567 251.84 264.567Z" fill="white"/>
<path d="M260.694 264.567C261.577 264.567 262.294 263.851 262.294 262.967C262.294 262.084 261.577 261.367 260.694 261.367C259.81 261.367 259.094 262.084 259.094 262.967C259.094 263.851 259.81 264.567 260.694 264.567Z" fill="white"/>
<path d="M256.215 268.833C257.099 268.833 257.815 268.116 257.815 267.233C257.815 266.349 257.099 265.633 256.215 265.633C255.332 265.633 254.615 266.349 254.615 267.233C254.615 268.116 255.332 268.833 256.215 268.833Z" fill="white"/>
<path d="M251.84 273.313C252.724 273.313 253.44 272.597 253.44 271.713C253.44 270.83 252.724 270.113 251.84 270.113C250.957 270.113 250.24 270.83 250.24 271.713C250.24 272.597 250.957 273.313 251.84 273.313Z" fill="white"/>
<path d="M260.694 273.313C261.577 273.313 262.294 272.597 262.294 271.713C262.294 270.83 261.577 270.113 260.694 270.113C259.81 270.113 259.094 270.83 259.094 271.713C259.094 272.597 259.81 273.313 260.694 273.313Z" fill="white"/>
</g>
<defs>
<clipPath id="clip0_1720_3351">
<rect width="640" height="480" fill="white"/>
</clipPath>
</defs>
</svg>
