<svg width="20" height="20" viewBox="0 0 20 20" fill="none" xmlns="http://www.w3.org/2000/svg">
<path fill-rule="evenodd" clip-rule="evenodd" d="M4.62788 11.2556C4.29483 11.2556 4.10765 11.6388 4.3124 11.9015L9.07084 18.0064C9.18744 18.156 9.18295 18.367 9.06009 18.5114L8.11265 19.6257C7.94843 19.8189 7.64827 19.8125 7.49242 19.6125L0.191668 10.2459C0.0789825 10.1013 0.0789828 9.89867 0.191668 9.7541L7.49242 0.387461C7.64827 0.187515 7.94843 0.181125 8.11265 0.374258L9.06009 1.48855C9.18295 1.63305 9.18744 1.84396 9.07084 1.99356L4.3124 8.09849C4.10765 8.36118 4.29483 8.7444 4.62788 8.7444H19.6C19.8209 8.7444 20 8.92348 20 9.1444V10.8556C20 11.0765 19.8209 11.2556 19.6 11.2556H4.62788Z" fill="#0A0A0A"/>
</svg>
