<svg width="300" height="200" viewBox="0 0 300 200" fill="none" xmlns="http://www.w3.org/2000/svg">
<path d="M1 131.885C12.9036 114.96 24.4433 98.0098 43.3573 88.6172C51.1595 84.7426 59.5318 82.0023 68.1466 80.6676C78.5481 79.0561 89.1494 79.7571 99.6112 78.8167C108.732 77.9969 116.805 75.2587 125.098 71.4436C136.669 66.1212 148.061 60.2383 159.142 53.9667C175.228 44.8629 191.066 35.3388 207.325 26.5376C218.136 20.6855 229.404 15.7118 239.669 9" stroke="#AAAAAA" stroke-opacity="0.2" stroke-width="0.4" stroke-linecap="round"/>
<path d="M11 141.885C22.9036 124.96 34.4433 108.01 53.3573 98.6172C61.1595 94.7426 69.5318 92.0023 78.1466 90.6676C88.5481 89.0561 99.1494 89.7571 109.611 88.8167C118.732 87.9969 126.805 85.2587 135.098 81.4436C146.669 76.1212 158.061 70.2383 169.142 63.9667C185.228 54.8629 201.066 45.3388 217.325 36.5376C228.136 30.6855 239.404 25.7118 249.669 19" stroke="#AAAAAA" stroke-opacity="0.2" stroke-width="0.4" stroke-linecap="round"/>
<path d="M21 151.885C32.9036 134.96 44.4433 118.01 63.3573 108.617C71.1595 104.743 79.5318 102.002 88.1466 100.668C98.5481 99.0561 109.149 99.7571 119.611 98.8167C128.732 97.9969 136.805 95.2587 145.098 91.4436C156.669 86.1212 168.061 80.2383 179.142 73.9667C195.228 64.8629 211.066 55.3388 227.325 46.5376C238.136 40.6855 249.404 35.7118 259.669 29" stroke="#AAAAAA" stroke-opacity="0.2" stroke-width="0.4" stroke-linecap="round"/>
<path d="M31 161.885C42.9036 144.96 54.4433 128.01 73.3573 118.617C81.1595 114.743 89.5318 112.002 98.1466 110.668C108.548 109.056 119.149 109.757 129.611 108.817C138.732 107.997 146.805 105.259 155.098 101.444C166.669 96.1212 178.061 90.2383 189.142 83.9667C205.228 74.8629 221.066 65.3388 237.325 56.5376C248.136 50.6855 259.404 45.7118 269.669 39" stroke="#AAAAAA" stroke-opacity="0.2" stroke-width="0.4" stroke-linecap="round"/>
<path d="M41 171.885C52.9036 154.96 64.4433 138.01 83.3573 128.617C91.1595 124.743 99.5318 122.002 108.147 120.668C118.548 119.056 129.149 119.757 139.611 118.817C148.732 117.997 156.805 115.259 165.098 111.444C176.669 106.121 188.061 100.238 199.142 93.9667C215.228 84.8629 231.066 75.3388 247.325 66.5376C258.136 60.6855 269.404 55.7118 279.669 49" stroke="#AAAAAA" stroke-opacity="0.2" stroke-width="0.4" stroke-linecap="round"/>
<path d="M51 181.885C62.9036 164.96 74.4433 148.01 93.3573 138.617C101.16 134.743 109.532 132.002 118.147 130.668C128.548 129.056 139.149 129.757 149.611 128.817C158.732 127.997 166.805 125.259 175.098 121.444C186.669 116.121 198.061 110.238 209.142 103.967C225.228 94.8629 241.066 85.3388 257.325 76.5376C268.136 70.6855 279.404 65.7118 289.669 59" stroke="#AAAAAA" stroke-opacity="0.2" stroke-width="0.4" stroke-linecap="round"/>
<path d="M61 191.885C72.9036 174.96 84.4433 158.01 103.357 148.617C111.16 144.743 119.532 142.002 128.147 140.668C138.548 139.056 149.149 139.757 159.611 138.817C168.732 137.997 176.805 135.259 185.098 131.444C196.669 126.121 208.061 120.238 219.142 113.967C235.228 104.863 251.066 95.3388 267.325 86.5376C278.136 80.6855 289.404 75.7118 299.669 69" stroke="#AAAAAA" stroke-opacity="0.2" stroke-width="0.4" stroke-linecap="round"/>
</svg>
