<svg width="16" height="16" viewBox="0 0 16 16" fill="none" xmlns="http://www.w3.org/2000/svg">
<path d="M6.39365 6.74851C6.61457 6.74851 6.79365 6.56943 6.79365 6.34851V0.4C6.79365 0.179086 6.97274 0 7.19365 0H8.80635C9.02726 0 9.20635 0.179086 9.20635 0.4V6.34851C9.20635 6.56943 9.38544 6.74851 9.60635 6.74851H15.6C15.8209 6.74851 16 6.9276 16 7.14851V8.75643C16 8.97735 15.8209 9.15644 15.6 9.15644H9.60635C9.38544 9.15644 9.20635 9.33552 9.20635 9.55643V15.6C9.20635 15.8209 9.02726 16 8.80635 16H7.19365C6.97274 16 6.79365 15.8209 6.79365 15.6V9.55643C6.79365 9.33552 6.61457 9.15644 6.39365 9.15644H0.4C0.179086 9.15644 0 8.97735 0 8.75643V7.14851C0 6.9276 0.179086 6.74851 0.4 6.74851H6.39365Z" fill="#101010"/>
</svg>
