<svg width="20" height="20" viewBox="0 0 20 20" fill="none" xmlns="http://www.w3.org/2000/svg">
<path fill-rule="evenodd" clip-rule="evenodd" d="M6.87552 1.2241C6.87547 0.997615 6.95551 0.77782 7.10254 0.600696C7.24956 0.423572 7.45485 0.299611 7.68482 0.249104C9.2087 -0.0837084 10.7911 -0.0830248 12.3146 0.251104C12.5448 0.301415 12.7503 0.425291 12.8975 0.602434C13.0448 0.779576 13.125 0.999478 13.125 1.2261V3.0731C13.125 3.24864 13.1731 3.42108 13.2645 3.57309C13.3559 3.72511 13.4874 3.85135 13.6458 3.93911C13.8041 4.02688 13.9837 4.07308 14.1666 4.07308C14.3494 4.07308 14.529 4.02687 14.6873 3.9391L16.3549 3.0141C16.5595 2.90073 16.7981 2.85748 17.0317 2.89146C17.2652 2.92544 17.4798 3.03463 17.6402 3.2011C18.6993 4.30302 19.4895 5.61748 19.9535 7.0491C20.0235 7.26568 20.0147 7.49865 19.9285 7.70978C19.8424 7.92092 19.6841 8.09769 19.4796 8.2111L17.8121 9.1351C17.6537 9.22288 17.5223 9.34911 17.4309 9.50113C17.3394 9.65314 17.2913 9.82558 17.2913 10.0011C17.2913 10.1766 17.3394 10.3491 17.4309 10.5011C17.5223 10.6531 17.6537 10.7793 17.8121 10.8671L19.4786 11.7901C19.6829 11.9035 19.841 12.0801 19.9271 12.291C20.0132 12.5019 20.0222 12.7347 19.9525 12.9511C19.4924 14.3851 18.7021 15.7012 17.6402 16.8021C17.4797 16.9684 17.265 17.0774 17.0315 17.1112C16.7979 17.145 16.5594 17.1016 16.3549 16.9881L14.6873 16.0631C14.529 15.9753 14.3494 15.9291 14.1666 15.9291C13.9837 15.9291 13.8041 15.9753 13.6458 16.0631C13.4874 16.1509 13.3559 16.2771 13.2645 16.4291C13.1731 16.5811 13.125 16.7536 13.125 16.9291V18.7791C13.1247 19.0056 13.0444 19.2252 12.8972 19.4022C12.75 19.5791 12.5446 19.7028 12.3146 19.7531C10.7907 20.0859 9.20839 20.0852 7.68482 19.7511C7.45485 19.7006 7.24956 19.5766 7.10254 19.3995C6.95551 19.2224 6.87547 19.0026 6.87552 18.7761V16.9291C6.87551 16.7536 6.82738 16.5811 6.73596 16.4291C6.64454 16.2771 6.51305 16.1509 6.35472 16.0631C6.19638 15.9753 6.01677 15.9291 5.83393 15.9291C5.6511 15.9291 5.47149 15.9753 5.31315 16.0631L3.64559 16.9881C3.44101 17.1015 3.20237 17.1447 2.96882 17.1107C2.73527 17.0768 2.52069 16.9676 2.36028 16.8011C1.83164 16.2525 1.36872 15.6487 0.980194 15.0011C0.590363 14.3541 0.277324 13.6671 0.0469422 12.9531C-0.0229816 12.7365 -0.0141648 12.5036 0.0719464 12.2924C0.158058 12.0813 0.31635 11.9045 0.520859 11.7911L2.18738 10.8671C2.34571 10.7793 2.47718 10.6531 2.56859 10.5011C2.66 10.3491 2.70812 10.1766 2.70812 10.0011C2.70812 9.82558 2.66 9.65314 2.56859 9.50113C2.47718 9.34911 2.34571 9.22288 2.18738 9.1351L0.522942 8.2121C0.318466 8.09889 0.160106 7.92235 0.0738141 7.71141C-0.0124782 7.50048 -0.0215859 7.26766 0.0479837 7.0511C0.508207 5.6175 1.29849 4.30167 2.36028 3.2011C2.52062 3.03486 2.73501 2.92583 2.96833 2.89185C3.20165 2.85788 3.44007 2.90098 3.64455 3.0141L5.31315 3.9391C5.47149 4.02687 5.6511 4.07308 5.83393 4.07308C6.01677 4.07308 6.19638 4.02688 6.35472 3.93911C6.51305 3.85135 6.64454 3.72511 6.73596 3.57309C6.82738 3.42108 6.87551 3.24864 6.87552 3.0731V1.2241ZM10.0002 13.0011C10.829 13.0011 11.6238 12.685 12.2098 12.1224C12.7958 11.5598 13.125 10.7968 13.125 10.0011C13.125 9.20545 12.7958 8.44239 12.2098 7.87978C11.6238 7.31717 10.829 7.0011 10.0002 7.0011C9.17151 7.0011 8.37673 7.31717 7.79073 7.87978C7.20473 8.44239 6.87552 9.20545 6.87552 10.0011C6.87552 10.7968 7.20473 11.5598 7.79073 12.1224C8.37673 12.685 9.17151 13.0011 10.0002 13.0011Z" fill="#0A0A0A"/>
</svg>
