<svg width="30" height="30" viewBox="0 0 30 30" fill="none" xmlns="http://www.w3.org/2000/svg">
<path d="M15 15.8C17.1478 15.8 18.8889 14.0091 18.8889 11.8C18.8889 9.59086 17.1478 7.8 15 7.8C12.8522 7.8 11.1111 9.59086 11.1111 11.8C11.1111 14.0091 12.8522 15.8 15 15.8Z" fill="#DDDDDD"/>
<path d="M15 15.8C13.3498 15.8 11.7671 16.4743 10.6002 17.6745C9.43333 18.8747 8.77778 20.5026 8.77778 22.2H21.2222C21.2222 20.5026 20.5667 18.8747 19.3998 17.6745C18.2329 16.4743 16.6502 15.8 15 15.8Z" fill="#DDDDDD"/>
<path fill-rule="evenodd" clip-rule="evenodd" d="M15 8.6C13.2818 8.6 11.8889 10.0327 11.8889 11.8C11.8889 13.5673 13.2818 15 15 15C16.7182 15 18.1111 13.5673 18.1111 11.8C18.1111 10.0327 16.7182 8.6 15 8.6ZM17.8319 15.6155C18.9472 14.7384 19.6667 13.3556 19.6667 11.8C19.6667 9.14903 17.5773 7 15 7C12.4227 7 10.3333 9.14903 10.3333 11.8C10.3333 13.3556 11.0528 14.7384 12.1681 15.6155C11.3861 15.9713 10.6666 16.4749 10.0503 17.1088C8.7375 18.4591 8 20.2904 8 22.2C8 22.4122 8.08194 22.6157 8.22781 22.7657C8.37367 22.9157 8.5715 23 8.77778 23H21.2222C21.4285 23 21.6263 22.9157 21.7722 22.7657C21.9181 22.6157 22 22.4122 22 22.2C22 20.2904 21.2625 18.4591 19.9497 17.1088C19.3334 16.4749 18.6139 15.9713 17.8319 15.6155ZM15 16.6C13.556 16.6 12.1712 17.19 11.1502 18.2402C10.3143 19.1 9.77827 20.2106 9.61137 21.4H20.3886C20.2217 20.2106 19.6857 19.1 18.8498 18.2402C17.8288 17.19 16.444 16.6 15 16.6Z" fill="#DDDDDD"/>
</svg>
