<svg width="6" height="6" viewBox="0 0 6 6" fill="none" xmlns="http://www.w3.org/2000/svg">
<path d="M3 5.4C3.63652 5.4 4.24697 5.14714 4.69706 4.69706C5.14714 4.24697 5.4 3.63652 5.4 3C5.4 2.36348 5.14714 1.75303 4.69706 1.30294C4.24697 0.852857 3.63652 0.6 3 0.6C2.36348 0.6 1.75303 0.852857 1.30294 1.30294C0.852857 1.75303 0.6 2.36348 0.6 3C0.6 3.63652 0.852857 4.24697 1.30294 4.69706C1.75303 5.14714 2.36348 5.4 3 5.4ZM3 0C3.39397 0 3.78407 0.0775973 4.14805 0.228361C4.51203 0.379126 4.84274 0.600104 5.12132 0.87868C5.3999 1.15726 5.62087 1.48797 5.77164 1.85195C5.9224 2.21593 6 2.60603 6 3C6 3.79565 5.68393 4.55871 5.12132 5.12132C4.55871 5.68393 3.79565 6 3 6C1.341 6 0 4.65 0 3C0 2.20435 0.316071 1.44129 0.87868 0.87868C1.44129 0.316071 2.20435 0 3 0ZM3.15 1.5V3.075L4.5 3.876L4.275 4.245L2.7 3.3V1.5H3.15Z" fill="#AAAAAA"/>
</svg>
